<svg width="38" height="38" viewBox="0 0 38 38" fill="none" xmlns="http://www.w3.org/2000/svg">
<path d="M17.7175 28.5H20.5675V20.615H28.5V17.765H20.5675V9.5H17.7175V17.765H9.5V20.615H17.7175V28.5ZM19 38C16.3083 38 13.8067 37.5171 11.495 36.5512C9.18333 35.5854 7.1725 34.2475 5.4625 32.5375C3.7525 30.8275 2.41458 28.8167 1.44875 26.505C0.482917 24.1933 0 21.6917 0 19C0 16.34 0.482917 13.8542 1.44875 11.5425C2.41458 9.23083 3.7525 7.22 5.4625 5.51C7.1725 3.8 9.18333 2.45417 11.495 1.4725C13.8067 0.490834 16.3083 0 19 0C21.66 0 24.1458 0.490834 26.4575 1.4725C28.7692 2.45417 30.78 3.8 32.49 5.51C34.2 7.22 35.5458 9.23083 36.5275 11.5425C37.5092 13.8542 38 16.34 38 19C38 21.6917 37.5092 24.1933 36.5275 26.505C35.5458 28.8167 34.2 30.8275 32.49 32.5375C30.78 34.2475 28.7692 35.5854 26.4575 36.5512C24.1458 37.5171 21.66 38 19 38ZM19 35.15C23.4333 35.15 27.2333 33.5667 30.4 30.4C33.5667 27.2333 35.15 23.4333 35.15 19C35.15 14.5667 33.5667 10.7667 30.4 7.6C27.2333 4.43333 23.4333 2.85 19 2.85C14.5667 2.85 10.7667 4.43333 7.6 7.6C4.43333 10.7667 2.85 14.5667 2.85 19C2.85 23.4333 4.43333 27.2333 7.6 30.4C10.7667 33.5667 14.5667 35.15 19 35.15Z" fill="#323238"/>
</svg>
