<svg width="41" height="50" viewBox="0 0 41 50" fill="none" xmlns="http://www.w3.org/2000/svg">
<path d="M4.25859 28.8393C4.25859 31.5269 4.85714 34.0544 6.05424 36.422C7.25135 38.7896 8.92099 40.7626 11.0632 42.341C10.8952 41.8291 10.7691 41.3065 10.6851 40.7733C10.6011 40.24 10.5591 39.7174 10.5591 39.2055C10.5591 37.8404 10.8111 36.5607 11.3152 35.3662C11.8192 34.1717 12.5543 33.0839 13.5204 32.1028L20.64 25L27.7596 32.1028C28.7257 33.0839 29.4607 34.1717 29.9648 35.3662C30.4688 36.5607 30.7208 37.8404 30.7208 39.2055C30.7208 39.7174 30.6788 40.24 30.5948 40.7733C30.5108 41.3065 30.3848 41.8291 30.2168 42.341C32.359 40.7626 34.0286 38.7896 35.2257 36.422C36.4228 34.0544 37.0214 31.5269 37.0214 28.8393C37.0214 26.5357 36.5383 24.2855 35.5722 22.0885C34.6062 19.8915 33.22 17.8759 31.4139 16.0415C30.5318 16.6814 29.6077 17.1827 28.6417 17.5453C27.6756 17.9079 26.7095 18.0892 25.7434 18.0892C23.1812 18.0892 21.06 17.204 19.3799 15.4337C17.6997 13.6633 16.8597 11.4343 16.8597 8.74681V7.46703C14.9275 8.87479 13.1843 10.4318 11.6302 12.1382C10.0761 13.8446 8.75297 15.6256 7.66088 17.4813C6.56879 19.337 5.72872 21.2353 5.14067 23.1763C4.55262 25.1173 4.25859 27.005 4.25859 28.8393ZM20.64 30.3751L16.1666 34.8543C15.5786 35.4515 15.127 36.1127 14.812 36.8379C14.497 37.5632 14.3394 38.3523 14.3394 39.2055C14.3394 40.9546 14.9485 42.437 16.1666 43.6528C17.3847 44.8686 18.8758 45.4765 20.64 45.4765C22.4041 45.4765 23.8953 44.8686 25.1134 43.6528C26.3315 42.437 26.9405 40.9546 26.9405 39.2055C26.9405 38.3523 26.783 37.5632 26.468 36.8379C26.1529 36.1127 25.7014 35.4515 25.1134 34.8543L20.64 30.3751ZM20.64 0.684204V9.13074C20.64 10.5812 21.1335 11.7969 22.1206 12.7781C23.1077 13.7593 24.3153 14.2499 25.7434 14.2499C26.4995 14.2499 27.203 14.0899 27.8541 13.7699C28.5051 13.45 29.0827 12.9701 29.5867 12.3302L30.7208 10.9224C33.8291 12.7141 36.2863 15.2097 38.0925 18.4091C39.8986 21.6086 40.8017 25.0853 40.8017 28.8393C40.8017 34.5557 38.8485 39.3975 34.9422 43.3648C31.0359 47.3321 26.2685 49.3158 20.64 49.3158C15.0115 49.3158 10.2441 47.3321 6.33777 43.3648C2.43144 39.3975 0.478271 34.5557 0.478271 28.8393C0.478271 23.3789 2.28442 18.1212 5.89673 13.0661C9.50904 8.01094 14.4235 3.88365 20.64 0.684204Z" fill="white"/>
</svg>
