<svg width="48" height="50" viewBox="0 0 48 50" fill="none" xmlns="http://www.w3.org/2000/svg">
<path d="M45.4463 22.3658V45.2632C45.4463 46.3439 45.0889 47.2895 44.3742 48.1C43.6595 48.9105 42.8256 49.3158 41.8726 49.3158H6.0766C5.12363 49.3158 4.28978 48.9105 3.57505 48.1C2.86032 47.2895 2.50295 46.3439 2.50295 45.2632V22.3658C1.39115 21.2851 0.65657 19.9567 0.299205 18.3807C-0.0581601 16.8047 -0.0184531 15.2287 0.418326 13.6526L2.97944 4.5342C3.2971 3.31842 3.853 2.3728 4.64714 1.69736C5.44129 1.02192 6.35455 0.684204 7.38694 0.684204H40.3241C41.4359 0.684204 42.4087 1.03318 43.2425 1.73113C44.0764 2.42909 44.6522 3.36344 44.9698 4.5342L47.5905 13.6526C48.0273 15.2287 48.057 16.8047 47.6798 18.3807C47.3026 19.9567 46.5581 21.2851 45.4463 22.3658ZM29.3649 20.2719C30.5164 20.2719 31.4892 19.8441 32.2834 18.9886C33.0775 18.133 33.3952 17.0974 33.2363 15.8816L31.7473 4.73684H25.7912V15.8816C25.7912 17.0523 26.1287 18.0767 26.8038 18.9548C27.4788 19.8329 28.3325 20.2719 29.3649 20.2719ZM18.227 20.2719C19.3388 20.2719 20.2819 19.8441 21.0561 18.9886C21.8304 18.133 22.2176 17.0974 22.2176 15.8816V4.73684H16.2615L14.7725 15.8816C14.6137 17.0523 14.8916 18.0767 15.6063 18.9548C16.3211 19.8329 17.1946 20.2719 18.227 20.2719ZM7.38694 20.2719C8.33991 20.2719 9.16384 19.9004 9.85871 19.1574C10.5536 18.4145 10.9606 17.5026 11.0797 16.4219L12.6283 4.73684H6.67221L3.93241 14.5982C3.53534 15.9941 3.69417 17.2887 4.4089 18.482C5.12363 19.6753 6.11631 20.2719 7.38694 20.2719ZM40.5623 20.2719C41.8329 20.2719 42.8355 19.6865 43.5701 18.5158C44.3047 17.345 44.4735 16.0392 44.0764 14.5982L41.3366 4.73684H35.3805L36.9291 16.4219C37.0482 17.5026 37.4552 18.4145 38.1501 19.1574C38.845 19.9004 39.649 20.2719 40.5623 20.2719ZM6.0766 45.2632H41.8726V24.257C41.9124 24.302 41.7833 24.3246 41.4855 24.3246C41.1877 24.3246 40.88 24.3246 40.5623 24.3246C39.5696 24.3246 38.6266 24.0882 37.7332 23.6153C36.8398 23.1425 35.9563 22.4108 35.0827 21.4202C34.4474 22.3208 33.6533 23.03 32.7003 23.5478C31.7473 24.0656 30.6951 24.3246 29.5436 24.3246C28.3523 24.3246 27.3299 24.1332 26.4762 23.7504C25.6225 23.3677 24.7985 22.726 24.0044 21.8254C23.4088 22.636 22.6544 23.2551 21.7411 23.6829C20.8278 24.1107 19.7954 24.3246 18.6439 24.3246C17.413 24.3246 16.3211 24.0769 15.3681 23.5816C14.4151 23.0863 13.6011 22.3658 12.9261 21.4202C11.9731 22.3658 11.04 23.0863 10.1267 23.5816C9.21347 24.0769 8.30021 24.3246 7.38694 24.3246C7.10899 24.3246 6.84097 24.3246 6.58287 24.3246C6.32477 24.3246 6.15602 24.302 6.0766 24.257V45.2632ZM41.8726 45.2632H6.0766C6.15602 45.2632 6.32477 45.2632 6.58287 45.2632C6.84097 45.2632 7.10899 45.2632 7.38694 45.2632C8.06196 45.2632 8.86603 45.2632 9.79915 45.2632C10.7323 45.2632 11.7746 45.2632 12.9261 45.2632C13.2835 45.2632 13.6805 45.2632 14.1173 45.2632C14.5541 45.2632 15.0207 45.2632 15.517 45.2632C16.0133 45.2632 16.5196 45.2632 17.0358 45.2632C17.552 45.2632 18.088 45.2632 18.6439 45.2632C19.0807 45.2632 19.5373 45.2632 20.0138 45.2632C20.4903 45.2632 20.9668 45.2632 21.4433 45.2632C21.9198 45.2632 22.3764 45.2632 22.8132 45.2632C23.25 45.2632 23.647 45.2632 24.0044 45.2632C24.878 45.2632 25.7515 45.2632 26.6251 45.2632C27.4986 45.2632 28.4715 45.2632 29.5436 45.2632C30.0995 45.2632 30.6454 45.2632 31.1815 45.2632C31.7175 45.2632 32.2238 45.2632 32.7003 45.2632C33.1768 45.2632 33.6136 45.2632 34.0106 45.2632C34.4077 45.2632 34.7651 45.2632 35.0827 45.2632C35.996 45.2632 36.9092 45.2632 37.8225 45.2632C38.7358 45.2632 39.649 45.2632 40.5623 45.2632C40.88 45.2632 41.1877 45.2632 41.4855 45.2632C41.7833 45.2632 41.9124 45.2632 41.8726 45.2632Z" fill="#323238"/>
</svg>
