<svg width="46" height="50" viewBox="0 0 46 50" fill="none" xmlns="http://www.w3.org/2000/svg">
<path d="M9.76883 40.0526C9.24378 40.0526 8.78437 39.85 8.39059 39.4447C7.9968 39.0395 7.79991 38.5667 7.79991 38.0263C7.79991 37.486 7.9968 37.0132 8.39059 36.6079C8.78437 36.2026 9.24378 36 9.76883 36C10.2939 36 10.7533 36.2026 11.1471 36.6079C11.5409 37.0132 11.7377 37.486 11.7377 38.0263C11.7377 38.5667 11.5409 39.0395 11.1471 39.4447C10.7533 39.85 10.2939 40.0526 9.76883 40.0526ZM36.7711 40.0526C36.2461 40.0526 35.7867 39.85 35.3929 39.4447C34.9991 39.0395 34.8022 38.5667 34.8022 38.0263C34.8022 37.486 34.9991 37.0132 35.3929 36.6079C35.7867 36.2026 36.2461 36 36.7711 36C37.2962 36 37.7556 36.2026 38.1494 36.6079C38.5431 37.0132 38.74 37.486 38.74 38.0263C38.74 38.5667 38.5431 39.0395 38.1494 39.4447C37.7556 39.85 37.2962 40.0526 36.7711 40.0526ZM16.5194 49.3158C15.9944 49.3158 15.5349 49.1132 15.1412 48.7079C14.7474 48.3026 14.5505 47.8298 14.5505 47.2895C14.5505 46.7491 14.7474 46.2763 15.1412 45.8711C15.5349 45.4658 15.9944 45.2632 16.5194 45.2632C17.0444 45.2632 17.5039 45.4658 17.8976 45.8711C18.2914 46.2763 18.4883 46.7491 18.4883 47.2895C18.4883 47.8298 18.2914 48.3026 17.8976 48.7079C17.5039 49.1132 17.0444 49.3158 16.5194 49.3158ZM23.27 40.0526C22.7449 40.0526 22.2855 39.85 21.8917 39.4447C21.4979 39.0395 21.3011 38.5667 21.3011 38.0263C21.3011 37.486 21.4979 37.0132 21.8917 36.6079C22.2855 36.2026 22.7449 36 23.27 36C23.795 36 24.2544 36.2026 24.6482 36.6079C25.042 37.0132 25.2389 37.486 25.2389 38.0263C25.2389 38.5667 25.042 39.0395 24.6482 39.4447C24.2544 39.85 23.795 40.0526 23.27 40.0526ZM30.0205 49.3158C29.4955 49.3158 29.0361 49.1132 28.6423 48.7079C28.2485 48.3026 28.0516 47.8298 28.0516 47.2895C28.0516 46.7491 28.2485 46.2763 28.6423 45.8711C29.0361 45.4658 29.4955 45.2632 30.0205 45.2632C30.5456 45.2632 31.005 45.4658 31.3988 45.8711C31.7926 46.2763 31.9895 46.7491 31.9895 47.2895C31.9895 47.8298 31.7926 48.3026 31.3988 48.7079C31.005 49.1132 30.5456 49.3158 30.0205 49.3158ZM12.5816 31.9474C9.31879 31.9474 6.53418 30.7605 4.22773 28.3868C1.92129 26.0132 0.768066 23.1474 0.768066 19.7895C0.768066 16.7404 1.82753 14.0193 3.94646 11.6263C6.06539 9.23334 8.69999 7.92105 11.8503 7.68948C13.0504 5.52807 14.6349 3.82018 16.6038 2.56579C18.5727 1.3114 20.7948 0.684212 23.27 0.684212C26.6828 0.684212 29.5424 1.79386 31.8488 4.01316C34.1553 6.23246 35.571 8.98246 36.0961 12.2632C39.0588 12.4175 41.4121 13.45 43.156 15.3605C44.8999 17.2711 45.7719 19.5193 45.7719 22.1053C45.7719 24.807 44.8437 27.1228 42.9873 29.0526C41.1309 30.9825 38.8713 31.9474 36.2086 31.9474H12.5816ZM12.5816 28.4737H36.2086C37.9337 28.4737 39.3963 27.8465 40.5964 26.5921C41.7965 25.3377 42.3966 23.8228 42.3966 22.0474C42.3966 20.3105 41.7965 18.8246 40.5964 17.5895C39.3963 16.3544 37.9337 15.7368 36.2086 15.7368H32.8333V14C32.8333 11.2597 31.9051 8.93421 30.0487 7.02369C28.1923 5.11316 25.9327 4.1579 23.27 4.1579C21.3573 4.1579 19.604 4.6886 18.0102 5.75C16.4163 6.81141 15.2443 8.24913 14.4942 10.0632L14.0442 11.1053H12.4691C10.1439 11.1825 8.17494 12.0605 6.56231 13.7395C4.94967 15.4184 4.14335 17.4351 4.14335 19.7895C4.14335 22.1825 4.96842 24.2281 6.61856 25.9263C8.2687 27.6246 10.2564 28.4737 12.5816 28.4737Z" fill="white"/>
</svg>
