<svg width="39" height="38" viewBox="0 0 39 38" fill="none" xmlns="http://www.w3.org/2000/svg">
<path d="M13 26.9888H18V11H13V26.9888ZM19.5 38C16.9033 38 14.4492 37.5012 12.1375 36.5037C9.82583 35.5062 7.80708 34.1446 6.08125 32.4188C4.35542 30.6929 2.99375 28.6742 1.99625 26.3625C0.99875 24.0508 0.5 21.5967 0.5 19C0.5 16.4033 0.99875 13.9492 1.99625 11.6375C2.99375 9.32583 4.35542 7.30708 6.08125 5.58125C7.80708 3.85542 9.82583 2.49375 12.1375 1.49625C14.4492 0.49875 16.9033 0 19.5 0C22.0967 0 24.5508 0.49875 26.8625 1.49625C29.1742 2.49375 31.1929 3.85542 32.9188 5.58125C34.6446 7.30708 36.0062 9.32583 37.0037 11.6375C38.0012 13.9492 38.5 16.4033 38.5 19C38.5 21.5967 38.0012 24.0508 37.0037 26.3625C36.0062 28.6742 34.6446 30.6929 32.9188 32.4188C31.1929 34.1446 29.1742 35.5062 26.8625 36.5037C24.5508 37.5012 22.0967 38 19.5 38ZM19.5 35.15C23.9333 35.15 27.7333 33.5667 30.9 30.4C34.0667 27.2333 35.65 23.4333 35.65 19C35.65 14.5667 34.0667 10.7667 30.9 7.6C27.7333 4.43333 23.9333 2.85 19.5 2.85C15.0667 2.85 11.2667 4.43333 8.1 7.6C4.93333 10.7667 3.35 14.5667 3.35 19C3.35 23.4333 4.93333 27.2333 8.1 30.4C11.2667 33.5667 15.0667 35.15 19.5 35.15Z" fill="#323238"/>
<path d="M21 11H26V27H21V11Z" fill="#323238"/>
</svg>
