<svg width="38" height="38" viewBox="0 0 38 38" fill="none" xmlns="http://www.w3.org/2000/svg">
<path d="M14.3925 27.075L27.075 19L14.3925 10.925V27.075ZM19 38C16.4033 38 13.9492 37.5012 11.6375 36.5037C9.32583 35.5062 7.30708 34.1446 5.58125 32.4188C3.85542 30.6929 2.49375 28.6742 1.49625 26.3625C0.49875 24.0508 0 21.5967 0 19C0 16.4033 0.49875 13.9492 1.49625 11.6375C2.49375 9.32583 3.85542 7.30708 5.58125 5.58125C7.30708 3.85542 9.32583 2.49375 11.6375 1.49625C13.9492 0.49875 16.4033 0 19 0C21.5967 0 24.0508 0.49875 26.3625 1.49625C28.6742 2.49375 30.6929 3.85542 32.4188 5.58125C34.1446 7.30708 35.5062 9.32583 36.5037 11.6375C37.5012 13.9492 38 16.4033 38 19C38 21.5967 37.5012 24.0508 36.5037 26.3625C35.5062 28.6742 34.1446 30.6929 32.4188 32.4188C30.6929 34.1446 28.6742 35.5062 26.3625 36.5037C24.0508 37.5012 21.5967 38 19 38ZM19 35.15C23.4333 35.15 27.2333 33.5667 30.4 30.4C33.5667 27.2333 35.15 23.4333 35.15 19C35.15 14.5667 33.5667 10.7667 30.4 7.6C27.2333 4.43333 23.4333 2.85 19 2.85C14.5667 2.85 10.7667 4.43333 7.6 7.6C4.43333 10.7667 2.85 14.5667 2.85 19C2.85 23.4333 4.43333 27.2333 7.6 30.4C10.7667 33.5667 14.5667 35.15 19 35.15Z" fill="#323238"/>
</svg>
