<svg width="48" height="48" viewBox="0 0 48 48" fill="none" xmlns="http://www.w3.org/2000/svg">
<path d="M28.5 14V24.5V35" stroke="#C4C4CC" stroke-width="5"/>
<path d="M19 14V24.5V35" stroke="#C4C4CC" stroke-width="5"/>
<path d="M48 24C48 37.2548 37.2548 48 24 48C10.7452 48 0 37.2548 0 24C0 10.7452 10.7452 0 24 0C37.2548 0 48 10.7452 48 24ZM4.08011 24C4.08011 35.0014 12.9986 43.9199 24 43.9199C35.0014 43.9199 43.9199 35.0014 43.9199 24C43.9199 12.9986 35.0014 4.08011 24 4.08011C12.9986 4.08011 4.08011 12.9986 4.08011 24Z" fill="#C4C4CC"/>
</svg>
