<svg width="46" height="46" viewBox="0 0 46 46" fill="none" xmlns="http://www.w3.org/2000/svg">
<path d="M13.6562 4.3125H5.03125C4.84063 4.3125 4.65781 4.38823 4.52302 4.52302C4.38823 4.65781 4.3125 4.84063 4.3125 5.03125V13.6562C4.3125 14.053 4.6345 14.375 5.03125 14.375H13.6562C13.8469 14.375 14.0297 14.2993 14.1645 14.1645C14.2993 14.0297 14.375 13.8469 14.375 13.6562V5.03125C14.375 4.84063 14.2993 4.65781 14.1645 4.52302C14.0297 4.38823 13.8469 4.3125 13.6562 4.3125Z" fill="white"/>
<path d="M26.7188 4.3125H18.0938C17.9031 4.3125 17.7203 4.38823 17.5855 4.52302C17.4507 4.65781 17.375 4.84063 17.375 5.03125V13.6562C17.375 14.053 17.697 14.375 18.0938 14.375H26.7188C26.9094 14.375 27.0922 14.2993 27.227 14.1645C27.3618 14.0297 27.4375 13.8469 27.4375 13.6562V5.03125C27.4375 4.84063 27.3618 4.65781 27.227 4.52302C27.0922 4.38823 26.9094 4.3125 26.7188 4.3125Z" fill="white"/>
<path d="M39.7812 4.3125H31.1562C30.9656 4.3125 30.7828 4.38823 30.648 4.52302C30.5132 4.65781 30.4375 4.84063 30.4375 5.03125V13.6562C30.4375 14.053 30.7595 14.375 31.1562 14.375H39.7812C39.9719 14.375 40.1547 14.2993 40.2895 14.1645C40.4243 14.0297 40.5 13.8469 40.5 13.6562V5.03125C40.5 4.84063 40.4243 4.65781 40.2895 4.52302C40.1547 4.38823 39.9719 4.3125 39.7812 4.3125Z" fill="white"/>
<path d="M13.6562 17.375H5.03125C4.84063 17.375 4.65781 17.4507 4.52302 17.5855C4.38823 17.7203 4.3125 17.9031 4.3125 18.0938V26.7188C4.3125 27.1155 4.6345 27.4375 5.03125 27.4375H13.6562C13.8469 27.4375 14.0297 27.3618 14.1645 27.227C14.2993 27.0922 14.375 26.9094 14.375 26.7188V18.0938C14.375 17.9031 14.2993 17.7203 14.1645 17.5855C14.0297 17.4507 13.8469 17.375 13.6562 17.375Z" fill="white"/>
<path d="M26.7188 17.375H18.0938C17.9031 17.375 17.7203 17.4507 17.5855 17.5855C17.4507 17.7203 17.375 17.9031 17.375 18.0938V26.7188C17.375 27.1155 17.697 27.4375 18.0938 27.4375H26.7188C26.9094 27.4375 27.0922 27.3618 27.227 27.227C27.3618 27.0922 27.4375 26.9094 27.4375 26.7188V18.0938C27.4375 17.9031 27.3618 17.7203 27.227 17.5855C27.0922 17.4507 26.9094 17.375 26.7188 17.375Z" fill="white"/>
<path d="M39.7812 17.375H31.1562C30.9656 17.375 30.7828 17.4507 30.648 17.5855C30.5132 17.7203 30.4375 17.9031 30.4375 18.0938V26.7188C30.4375 27.1155 30.7595 27.4375 31.1562 27.4375H39.7812C39.9719 27.4375 40.1547 27.3618 40.2895 27.227C40.4243 27.0922 40.5 26.9094 40.5 26.7188V18.0938C40.5 17.9031 40.4243 17.7203 40.2895 17.5855C40.1547 17.4507 39.9719 17.375 39.7812 17.375Z" fill="white"/>
<path d="M13.6562 30.4375H5.03125C4.84063 30.4375 4.65781 30.5132 4.52302 30.648C4.38823 30.7828 4.3125 30.9656 4.3125 31.1562V39.7812C4.3125 40.178 4.6345 40.5 5.03125 40.5H13.6562C13.8469 40.5 14.0297 40.4243 14.1645 40.2895C14.2993 40.1547 14.375 39.9719 14.375 39.7812V31.1562C14.375 30.9656 14.2993 30.7828 14.1645 30.648C14.0297 30.5132 13.8469 30.4375 13.6562 30.4375Z" fill="white"/>
<path d="M26.7188 30.4375H18.0938C17.9031 30.4375 17.7203 30.5132 17.5855 30.648C17.4507 30.7828 17.375 30.9656 17.375 31.1562V39.7812C17.375 40.178 17.697 40.5 18.0938 40.5H26.7188C26.9094 40.5 27.0922 40.4243 27.227 40.2895C27.3618 40.1547 27.4375 39.9719 27.4375 39.7812V31.1562C27.4375 30.9656 27.3618 30.7828 27.227 30.648C27.0922 30.5132 26.9094 30.4375 26.7188 30.4375Z" fill="white"/>
<path d="M39.7812 30.4375H31.1562C30.9656 30.4375 30.7828 30.5132 30.648 30.648C30.5132 30.7828 30.4375 30.9656 30.4375 31.1562V39.7812C30.4375 40.178 30.7595 40.5 31.1562 40.5H39.7812C39.9719 40.5 40.1547 40.4243 40.2895 40.2895C40.4243 40.1547 40.5 39.9719 40.5 39.7812V31.1562C40.5 30.9656 40.4243 30.7828 40.2895 30.648C40.1547 30.5132 39.9719 30.4375 39.7812 30.4375Z" fill="white"/>
</svg>
