<svg width="46" height="49" viewBox="0 0 46 49" fill="none" xmlns="http://www.w3.org/2000/svg">
<path d="M9.00076 39.3684C8.47572 39.3684 8.0163 39.1658 7.62252 38.7605C7.22874 38.3553 7.03185 37.8825 7.03185 37.3421C7.03185 36.8018 7.22874 36.329 7.62252 35.9237C8.0163 35.5184 8.47572 35.3158 9.00076 35.3158C9.52581 35.3158 9.98522 35.5184 10.379 35.9237C10.7728 36.329 10.9697 36.8018 10.9697 37.3421C10.9697 37.8825 10.7728 38.3553 10.379 38.7605C9.98522 39.1658 9.52581 39.3684 9.00076 39.3684ZM36.003 39.3684C35.478 39.3684 35.0186 39.1658 34.6248 38.7605C34.231 38.3553 34.0341 37.8825 34.0341 37.3421C34.0341 36.8018 34.231 36.329 34.6248 35.9237C35.0186 35.5184 35.478 35.3158 36.003 35.3158C36.5281 35.3158 36.9875 35.5184 37.3813 35.9237C37.7751 36.329 37.972 36.8018 37.972 37.3421C37.972 37.8825 37.7751 38.3553 37.3813 38.7605C36.9875 39.1658 36.5281 39.3684 36.003 39.3684ZM15.7513 48.6316C15.2263 48.6316 14.7669 48.4289 14.3731 48.0237C13.9793 47.6184 13.7824 47.1456 13.7824 46.6053C13.7824 46.0649 13.9793 45.5921 14.3731 45.1868C14.7669 44.7816 15.2263 44.579 15.7513 44.579C16.2764 44.579 16.7358 44.7816 17.1296 45.1868C17.5234 45.5921 17.7203 46.0649 17.7203 46.6053C17.7203 47.1456 17.5234 47.6184 17.1296 48.0237C16.7358 48.4289 16.2764 48.6316 15.7513 48.6316ZM22.5019 39.3684C21.9769 39.3684 21.5174 39.1658 21.1237 38.7605C20.7299 38.3553 20.533 37.8825 20.533 37.3421C20.533 36.8018 20.7299 36.329 21.1237 35.9237C21.5174 35.5184 21.9769 35.3158 22.5019 35.3158C23.0269 35.3158 23.4864 35.5184 23.8801 35.9237C24.2739 36.329 24.4708 36.8018 24.4708 37.3421C24.4708 37.8825 24.2739 38.3553 23.8801 38.7605C23.4864 39.1658 23.0269 39.3684 22.5019 39.3684ZM29.2525 48.6316C28.7274 48.6316 28.268 48.4289 27.8742 48.0237C27.4805 47.6184 27.2836 47.1456 27.2836 46.6053C27.2836 46.0649 27.4805 45.5921 27.8742 45.1868C28.268 44.7816 28.7274 44.579 29.2525 44.579C29.7775 44.579 30.2369 44.7816 30.6307 45.1868C31.0245 45.5921 31.2214 46.0649 31.2214 46.6053C31.2214 47.1456 31.0245 47.6184 30.6307 48.0237C30.2369 48.4289 29.7775 48.6316 29.2525 48.6316ZM11.8135 31.2632C8.55072 31.2632 5.76611 30.0763 3.45967 27.7026C1.15322 25.3289 0 22.4632 0 19.1053C0 16.0561 1.05946 13.3351 3.17839 10.9421C5.29732 8.54912 7.93192 7.23684 11.0822 7.00526C12.2823 4.84386 13.8668 3.13597 15.8357 1.88158C17.8046 0.627193 20.0267 0 22.5019 0C25.9147 0 28.7743 1.10965 31.0808 3.32895C33.3872 5.54825 34.803 8.29825 35.328 11.5789C38.2907 11.7333 40.6441 12.7658 42.388 14.6763C44.1319 16.5868 45.0038 18.8351 45.0038 21.4211C45.0038 24.1228 44.0756 26.4386 42.2192 28.3684C40.3628 30.2982 38.1032 31.2632 35.4405 31.2632H11.8135ZM11.8135 27.7895H35.4405C37.1656 27.7895 38.6283 27.1623 39.8284 25.9079C41.0285 24.6535 41.6285 23.1386 41.6285 21.3632C41.6285 19.6263 41.0285 18.1404 39.8284 16.9053C38.6283 15.6702 37.1656 15.0526 35.4405 15.0526H32.0652V13.3158C32.0652 10.5754 31.137 8.25 29.2806 6.33947C27.4242 4.42895 25.1646 3.47368 22.5019 3.47368C20.5892 3.47368 18.836 4.00439 17.2421 5.06579C15.6482 6.12719 14.4762 7.56491 13.7262 9.37895L13.2761 10.4211H11.701C9.37579 10.4982 7.40688 11.3763 5.79424 13.0553C4.1816 14.7342 3.37529 16.7509 3.37529 19.1053C3.37529 21.4982 4.20036 23.5439 5.8505 25.2421C7.50064 26.9404 9.4883 27.7895 11.8135 27.7895Z" fill="#323238"/>
</svg>
