<svg width="38" height="50" viewBox="0 0 38 50" fill="none" xmlns="http://www.w3.org/2000/svg">
<path d="M4.3232 49.3158V45.6684H17.3181V34.7263H12.002C8.73358 34.7263 5.94756 33.5409 3.64393 31.1701C1.34029 28.7993 0.188477 25.9321 0.188477 22.5684C0.188477 20.1368 0.838219 17.8978 2.1377 15.8512C3.43719 13.8046 5.18953 12.3153 7.39471 11.3832C7.74912 8.34369 9.03876 5.80066 11.2636 3.75408C13.4885 1.7075 16.0973 0.684212 19.0901 0.684212C22.0828 0.684212 24.6916 1.7075 26.9165 3.75408C29.1414 5.80066 30.431 8.34369 30.7854 11.3832C32.9906 12.3153 34.743 13.8046 36.0424 15.8512C37.3419 17.8978 37.9917 20.1368 37.9917 22.5684C37.9917 25.9321 36.8399 28.7993 34.5362 31.1701C32.2326 33.5409 29.4466 34.7263 26.1782 34.7263H20.8621V45.6684H34.4476V49.3158H4.3232ZM12.002 31.079H26.1782C28.4621 31.079 30.4114 30.2482 32.0259 28.5866C33.6404 26.925 34.4476 24.919 34.4476 22.5684C34.4476 20.8663 33.9751 19.3162 33.03 17.918C32.0849 16.5199 30.8642 15.4763 29.3678 14.7874L27.4777 13.9363L27.2414 11.8087C26.9657 9.66079 26.06 7.87763 24.5243 6.45921C22.9885 5.04079 21.1771 4.33158 19.0901 4.33158C17.003 4.33158 15.1916 5.04079 13.6559 6.45921C12.1201 7.87763 11.2144 9.66079 10.9388 11.8087L10.7025 13.9363L8.81233 14.7874C7.31596 15.4763 6.09523 16.5199 5.15015 17.918C4.20507 19.3162 3.73253 20.8663 3.73253 22.5684C3.73253 24.919 4.53978 26.925 6.15429 28.5866C7.76881 30.2482 9.71803 31.079 12.002 31.079Z" fill="#323238"/>
</svg>
